<svg width="120" height="120" viewBox="0 0 120 120" fill="none" xmlns="http://www.w3.org/2000/svg">
<g id="x-octagon-24px">
<path id="Shape" fill-rule="evenodd" clip-rule="evenodd" d="M35.7645 6.46458C36.7021 5.5269 37.9739 5.00011 39.3 5.00011L80.7 5.00011C82.0261 5.00011 83.2978 5.5269 84.2355 6.46458L113.536 35.7646C114.473 36.7023 115 37.974 115 39.3001L115 80.7001C115 82.0262 114.473 83.298 113.536 84.2356L84.2355 113.536C83.2978 114.473 82.0261 115 80.7 115L39.3 115C37.9739 115 36.7021 114.473 35.7645 113.536L6.46447 84.2356C5.52678 83.298 5 82.0262 5 80.7001L5 39.3001C5 37.974 5.52678 36.7023 6.46447 35.7646L35.7645 6.46458ZM41.3711 15.0001L15 41.3712L15 78.629L41.3711 105L78.6289 105L105 78.629L105 41.3712L78.6289 15.0001L41.3711 15.0001ZM41.4645 41.4646C43.4171 39.512 46.5829 39.512 48.5355 41.4646L60 52.929L71.4645 41.4646C73.4171 39.512 76.5829 39.512 78.5355 41.4646C80.4882 43.4172 80.4882 46.583 78.5355 48.5356L67.0711 60.0001L78.5355 71.4646C80.4882 73.4172 80.4882 76.583 78.5355 78.5356C76.5829 80.4883 73.4171 80.4883 71.4645 78.5356L60 67.0712L48.5355 78.5356C46.5829 80.4883 43.4171 80.4883 41.4645 78.5356C39.5118 76.583 39.5118 73.4172 41.4645 71.4646L52.9289 60.0001L41.4645 48.5356C39.5118 46.583 39.5118 43.4172 41.4645 41.4646Z" fill="white"/>
</g>
</svg>
