<svg width="80" height="80" viewBox="0 0 80 80" fill="none" xmlns="http://www.w3.org/2000/svg">
<path fill-rule="evenodd" clip-rule="evenodd" d="M14 14H26V26H14V14ZM9 31V9H31V15H37V21H31V23H37H43V29H37H31V31V37H37V43V49H31V43H21V37H25V31H9ZM15 43H21V49H31V55H37V61H31V71H9V49H15V43ZM15 43H9V37H15V43ZM43 49V55H37V49H43ZM49 43H43V49H49V58H43V63H37V71H43V64H49V71H71V49V43H65V37H71V31V9H49V17H43V23H49V31H43H37V37H43H49V43ZM49 37V31H65V37H60H59H55H54H49ZM65 43V49H60V46V43H65ZM49 43H54V46V49H49V43ZM37 15H43V9H37V15ZM14 54H26V66H14V54ZM66 14H54V26H66V14ZM66 54V66H54V54H66ZM17 57H23V63H17V57ZM23 17H17V23H23V17ZM57 17H63V23H57V17ZM63 57H57V63H63V57Z" fill="white"/>
</svg>
