<svg width="24" height="24" viewBox="0 0 24 24" fill="none" xmlns="http://www.w3.org/2000/svg">
<g id="rotate-cw-24px">
<path id="Shape" fill-rule="evenodd" clip-rule="evenodd" d="M13.1275 4.08122C11.4102 3.83762 9.66016 4.15879 8.14121 4.99633C6.62226 5.83386 5.41667 7.14238 4.70611 8.72471C3.99554 10.307 3.8185 12.0774 4.20166 13.7691C4.58483 15.4608 5.50743 16.9822 6.83046 18.1039C8.15348 19.2256 9.80524 19.887 11.5368 19.9883C13.2684 20.0896 14.986 19.6253 16.4308 18.6655C17.8756 17.7057 18.9693 16.3024 19.5471 14.6669C19.7311 14.1461 20.3024 13.8731 20.8231 14.0571C21.3439 14.2411 21.6169 14.8124 21.4329 15.3331C20.7106 17.3775 19.3435 19.1317 17.5375 20.3314C15.7315 21.5312 13.5845 22.1115 11.42 21.9849C9.25554 21.8582 7.19084 21.0316 5.53706 19.6294C3.88328 18.2272 2.73003 16.3256 2.25107 14.2109C1.77212 12.0963 1.99342 9.88331 2.88162 7.9054C3.76983 5.92749 5.27682 4.29184 7.1755 3.24492C9.07419 2.19801 11.2617 1.79655 13.4084 2.10104C15.5551 2.40553 17.5447 3.39948 19.0773 4.9331C19.0836 4.93941 19.0899 4.94581 19.096 4.95229L21.5 7.49017V4.49999C21.5 3.9477 21.9477 3.49999 22.5 3.49999C23.0523 3.49999 23.5 3.9477 23.5 4.49999V10.5C23.5 11.0523 23.0523 11.5 22.5 11.5H16.5C15.9477 11.5 15.5 11.0523 15.5 10.5C15.5 9.9477 15.9477 9.49999 16.5 9.49999H20.649L17.6535 6.33768C16.4286 5.116 14.8406 4.3242 13.1275 4.08122Z" fill="black"/>
</g>
</svg>
