<svg width="120" height="120" viewBox="0 0 120 120" fill="none" xmlns="http://www.w3.org/2000/svg">
<g id="check-circle-24px">
<path id="Shape" fill-rule="evenodd" clip-rule="evenodd" d="M78.315 18.8672C69.4512 14.9177 59.5482 13.9393 50.0829 16.0778C40.6175 18.2164 32.0971 23.3574 25.7923 30.734C19.4874 38.1106 15.736 47.3277 15.0976 57.0106C14.4591 66.6935 16.9677 76.3233 22.2493 84.464C27.531 92.6046 35.3026 98.8199 44.4051 102.183C53.5077 105.546 63.4535 105.876 72.7591 103.125C82.0648 100.373 90.2318 94.6876 96.042 86.9154C101.852 79.1432 104.994 69.7011 105 59.9972V55.4C105 52.6386 107.239 50.4 110 50.4C112.761 50.4 115 52.6386 115 55.4V60C114.993 71.8604 111.153 83.4036 104.051 92.9029C96.9499 102.402 86.9681 109.352 75.5945 112.714C64.2209 116.077 52.0649 115.673 40.9396 111.563C29.8142 107.453 20.3156 99.8564 13.8603 89.9068C7.40496 79.9571 4.33885 68.1872 5.11922 56.3526C5.89959 44.518 10.4846 33.2527 18.1905 24.2368C25.8964 15.2209 36.3103 8.93749 47.879 6.32369C59.4478 3.70989 71.5515 4.90574 82.385 9.73289C84.9074 10.8568 86.0411 13.8127 84.9172 16.335C83.7933 18.8574 80.8374 19.9911 78.315 18.8672ZM113.534 16.4627C115.487 18.4144 115.489 21.5802 113.537 23.5338L63.5373 73.5838C62.5998 74.5223 61.3278 75.0497 60.0013 75.05C58.6748 75.0504 57.4025 74.5236 56.4645 73.5856L41.4645 58.5856C39.5119 56.6329 39.5119 53.4671 41.4645 51.5145C43.4171 49.5619 46.5829 49.5619 48.5356 51.5145L59.9983 62.9772L106.463 16.4663C108.414 14.5127 111.58 14.5111 113.534 16.4627Z" fill="white"/>
</g>
</svg>
