<svg width="172" height="39" viewBox="0 0 172 39" fill="none" xmlns="http://www.w3.org/2000/svg">
<path d="M11.2266 21.9453V2.0625H15.9531V21.9453C15.9531 23.8333 15.6081 25.4479 14.918 26.7891C14.2279 28.1172 13.2839 29.1328 12.0859 29.8359C10.888 30.5391 9.52734 30.8906 8.00391 30.8906C6.46745 30.8906 5.09375 30.5846 3.88281 29.9727C2.6849 29.3477 1.74089 28.4036 1.05078 27.1406C0.360677 25.8776 0.015625 24.276 0.015625 22.3359H4.78125C4.78125 23.4427 4.91797 24.3346 5.19141 25.0117C5.46484 25.6758 5.84245 26.1641 6.32422 26.4766C6.81901 26.776 7.37891 26.9258 8.00391 26.9258C8.64193 26.9258 9.20182 26.737 9.68359 26.3594C10.1654 25.9688 10.543 25.4023 10.8164 24.6602C11.0898 23.918 11.2266 23.013 11.2266 21.9453ZM23.0352 15.0312L27.1367 11.7305C27.8268 11.1836 28.2891 10.6497 28.5234 10.1289C28.7708 9.59505 28.8945 8.94401 28.8945 8.17578C28.8945 7.51172 28.6927 6.89974 28.2891 6.33984C27.8984 5.76693 27.3451 5.48047 26.6289 5.48047C26.1211 5.48047 25.6979 5.63021 25.3594 5.92969C25.0339 6.22917 24.7865 6.63281 24.6172 7.14062C24.4479 7.63542 24.3633 8.18229 24.3633 8.78125C24.3633 9.36719 24.4935 9.96615 24.7539 10.5781C25.0273 11.1901 25.3854 11.8346 25.8281 12.5117C26.2708 13.1758 26.7656 13.8919 27.3125 14.6602L38.4648 30.5H33.2109L24.2656 17.6289C23.4714 16.4831 22.7617 15.4349 22.1367 14.4844C21.5117 13.5208 21.0234 12.5898 20.6719 11.6914C20.3203 10.7799 20.1445 9.84245 20.1445 8.87891C20.1445 7.39453 20.4115 6.11198 20.9453 5.03125C21.4922 3.95052 22.2474 3.1237 23.2109 2.55078C24.1875 1.96484 25.3333 1.67188 26.6484 1.67188C27.8984 1.67188 28.9857 1.96484 29.9102 2.55078C30.8346 3.1237 31.5443 3.89193 32.0391 4.85547C32.5469 5.80599 32.8008 6.85417 32.8008 8C32.8008 8.89844 32.6706 9.71875 32.4102 10.4609C32.1497 11.1901 31.7786 11.8672 31.2969 12.4922C30.8281 13.1042 30.2552 13.6836 29.5781 14.2305L24.3633 18.5859C23.8815 19.1198 23.5234 19.6406 23.2891 20.1484C23.0677 20.6562 22.918 21.125 22.8398 21.5547C22.7747 21.9714 22.7422 22.3424 22.7422 22.668C22.7422 23.4883 22.8789 24.237 23.1523 24.9141C23.4388 25.5781 23.8424 26.1055 24.3633 26.4961C24.8841 26.8737 25.5091 27.0625 26.2383 27.0625C27.0977 27.0625 27.931 26.8216 28.7383 26.3398C29.5456 25.8581 30.2747 25.168 30.9258 24.2695C31.5768 23.3711 32.0911 22.3034 32.4688 21.0664C32.8464 19.8164 33.0352 18.4362 33.0352 16.9258H36.9609C36.9609 18.319 36.8438 19.6406 36.6094 20.8906C36.388 22.1276 36.0169 23.2734 35.4961 24.3281C34.9883 25.3828 34.3112 26.3333 33.4648 27.1797C33.3867 27.2578 33.2956 27.3685 33.1914 27.5117C33.0872 27.6549 32.9961 27.7721 32.918 27.8633C31.9674 28.8789 30.9062 29.6406 29.7344 30.1484C28.5625 30.6432 27.3451 30.8906 26.082 30.8906C24.4674 30.8906 23.0677 30.5456 21.8828 29.8555C20.6979 29.1654 19.7865 28.2148 19.1484 27.0039C18.5104 25.793 18.1914 24.4062 18.1914 22.8438C18.1914 21.6719 18.3932 20.6497 18.7969 19.7773C19.2135 18.8919 19.7865 18.0716 20.5156 17.3164C21.2448 16.5612 22.0846 15.7995 23.0352 15.0312ZM55.2539 13.8984V17.8828H43.2812V13.8984H55.2539ZM44.3945 2.0625V30.5H39.6484V2.0625H44.3945ZM58.9648 2.0625V30.5H54.2383V2.0625H58.9648ZM78.9102 2.0625V30.5H74.1836V2.0625H78.9102ZM86.1562 2.0625V6.04688H67.0156V2.0625H86.1562ZM90.7188 13.4492V30.5H86.168V9.36719H90.5039L90.7188 13.4492ZM95.8164 9.23047L95.7969 13.7227C95.5365 13.6576 95.2565 13.6185 94.957 13.6055C94.6706 13.5794 94.3841 13.5664 94.0977 13.5664C93.4727 13.5664 92.9323 13.6771 92.4766 13.8984C92.0208 14.1198 91.6367 14.4388 91.3242 14.8555C91.0117 15.2721 90.7643 15.7734 90.582 16.3594C90.4128 16.9453 90.3086 17.6094 90.2695 18.3516L89.293 18.3906C89.293 17.0625 89.3971 15.832 89.6055 14.6992C89.8138 13.5534 90.1263 12.5573 90.543 11.7109C90.9727 10.8516 91.5065 10.181 92.1445 9.69922C92.7826 9.21745 93.5247 8.97656 94.3711 8.97656C94.6055 8.97656 94.8724 9.0026 95.1719 9.05469C95.4714 9.10677 95.6862 9.16536 95.8164 9.23047ZM106.082 26.2031V15.6758C106.082 14.9466 105.978 14.3607 105.77 13.918C105.574 13.4753 105.281 13.1562 104.891 12.9609C104.513 12.7526 104.038 12.6484 103.465 12.6484C102.866 12.6484 102.358 12.7721 101.941 13.0195C101.538 13.2669 101.232 13.6055 101.023 14.0352C100.815 14.4518 100.711 14.9336 100.711 15.4805H96.1602C96.1602 14.6341 96.3294 13.8203 96.668 13.0391C97.0195 12.2578 97.5208 11.5612 98.1719 10.9492C98.8229 10.3372 99.6107 9.85547 100.535 9.50391C101.46 9.15234 102.488 8.97656 103.621 8.97656C104.975 8.97656 106.18 9.20443 107.234 9.66016C108.289 10.1029 109.116 10.8255 109.715 11.8281C110.327 12.8177 110.633 14.1198 110.633 15.7344V25.5977C110.633 26.5742 110.691 27.4466 110.809 28.2148C110.939 28.9701 111.115 29.6276 111.336 30.1875V30.5H106.707C106.499 29.9922 106.342 29.3411 106.238 28.5469C106.134 27.7526 106.082 26.9714 106.082 26.2031ZM106.688 17.6289L106.707 20.5781H104.52C103.868 20.5781 103.283 20.6693 102.762 20.8516C102.241 21.0208 101.798 21.2682 101.434 21.5938C101.082 21.9062 100.809 22.2904 100.613 22.7461C100.431 23.2018 100.34 23.7031 100.34 24.25C100.34 24.9141 100.431 25.4544 100.613 25.8711C100.809 26.2878 101.089 26.6003 101.453 26.8086C101.831 27.0039 102.286 27.1016 102.82 27.1016C103.549 27.1016 104.181 26.9453 104.715 26.6328C105.262 26.3073 105.678 25.9167 105.965 25.4609C106.264 25.0052 106.382 24.5885 106.316 24.2109L107.352 26.1055C107.247 26.6003 107.052 27.1211 106.766 27.668C106.492 28.2148 106.134 28.7357 105.691 29.2305C105.249 29.7253 104.715 30.1289 104.09 30.4414C103.465 30.7409 102.742 30.8906 101.922 30.8906C100.737 30.8906 99.6823 30.6432 98.7578 30.1484C97.8333 29.6536 97.1042 28.944 96.5703 28.0195C96.0495 27.082 95.7891 25.9622 95.7891 24.6602C95.7891 23.6055 95.9648 22.6484 96.3164 21.7891C96.668 20.9297 97.1888 20.194 97.8789 19.582C98.569 18.957 99.4349 18.4753 100.477 18.1367C101.531 17.7982 102.762 17.6289 104.168 17.6289H106.688ZM123.926 26.0859V0.5H128.477V30.5L124.355 30.5195L123.926 26.0859ZM112.578 20.793V19.1328C112.578 17.401 112.734 15.9036 113.047 14.6406C113.359 13.3646 113.815 12.3034 114.414 11.457C115.026 10.6107 115.762 9.98568 116.621 9.58203C117.48 9.17839 118.451 8.97656 119.531 8.97656C120.586 8.97656 121.497 9.21745 122.266 9.69922C123.034 10.168 123.685 10.8385 124.219 11.7109C124.753 12.5833 125.176 13.625 125.488 14.8359C125.814 16.0339 126.035 17.375 126.152 18.8594V21.1641C126.009 22.5964 125.781 23.9115 125.469 25.1094C125.156 26.2943 124.733 27.3164 124.199 28.1758C123.665 29.0352 123.008 29.7057 122.227 30.1875C121.458 30.6562 120.553 30.8906 119.512 30.8906C118.431 30.8906 117.461 30.6758 116.602 30.2461C115.755 29.8164 115.026 29.1784 114.414 28.332C113.815 27.4857 113.359 26.4375 113.047 25.1875C112.734 23.9245 112.578 22.4596 112.578 20.793ZM117.129 19.1328V20.793C117.129 21.8737 117.194 22.8047 117.324 23.5859C117.454 24.3672 117.663 25.0117 117.949 25.5195C118.236 26.0143 118.613 26.3854 119.082 26.6328C119.551 26.8672 120.117 26.9844 120.781 26.9844C121.615 26.9844 122.292 26.776 122.812 26.3594C123.346 25.9427 123.757 25.3828 124.043 24.6797C124.342 23.9635 124.551 23.1693 124.668 22.2969V17.7461C124.603 17.056 124.473 16.418 124.277 15.832C124.082 15.2331 123.828 14.7122 123.516 14.2695C123.203 13.8268 122.819 13.4818 122.363 13.2344C121.921 12.974 121.4 12.8438 120.801 12.8438C120.137 12.8438 119.57 12.974 119.102 13.2344C118.633 13.4818 118.255 13.8659 117.969 14.3867C117.682 14.8945 117.467 15.5456 117.324 16.3398C117.194 17.1211 117.129 18.0521 117.129 19.1328ZM135.969 9.36719V30.5H131.418V9.36719H135.969ZM131.184 3.83984C131.184 3.11068 131.405 2.50521 131.848 2.02344C132.29 1.52865 132.909 1.28125 133.703 1.28125C134.497 1.28125 135.116 1.52214 135.559 2.00391C136.001 2.48568 136.223 3.09115 136.223 3.82031C136.223 4.53646 136.001 5.13542 135.559 5.61719C135.116 6.09896 134.497 6.33984 133.703 6.33984C132.909 6.33984 132.29 6.09896 131.848 5.61719C131.405 5.13542 131.184 4.54297 131.184 3.83984ZM143.324 13.8789V30.5H138.773V9.36719H143.051L143.324 13.8789ZM142.504 19.1719H141.059C141.046 17.6484 141.208 16.2617 141.547 15.0117C141.885 13.7617 142.367 12.6875 142.992 11.7891C143.63 10.8906 144.385 10.2005 145.258 9.71875C146.143 9.22396 147.126 8.97656 148.207 8.97656C149.04 8.97656 149.802 9.11979 150.492 9.40625C151.195 9.67969 151.794 10.1289 152.289 10.7539C152.784 11.3789 153.161 12.1927 153.422 13.1953C153.695 14.1979 153.832 15.4219 153.832 16.8672V30.5H149.281V16.8281C149.281 15.8385 149.171 15.0573 148.949 14.4844C148.741 13.8984 148.428 13.4818 148.012 13.2344C147.595 12.974 147.068 12.8438 146.43 12.8438C145.844 12.8438 145.303 13.013 144.809 13.3516C144.327 13.6771 143.91 14.1328 143.559 14.7188C143.22 15.2917 142.96 15.9622 142.777 16.7305C142.595 17.4857 142.504 18.2995 142.504 19.1719ZM167.672 9.36719H171.793V30.5781C171.793 32.4792 171.441 34.0352 170.738 35.2461C170.048 36.4701 169.085 37.375 167.848 37.9609C166.611 38.5469 165.178 38.8398 163.551 38.8398C162.952 38.8398 162.242 38.7422 161.422 38.5469C160.602 38.3516 159.801 38.0651 159.02 37.6875C158.238 37.3099 157.587 36.8411 157.066 36.2812L158.727 33.1172C159.339 33.7422 160.061 34.224 160.895 34.5625C161.728 34.9141 162.529 35.0898 163.297 35.0898C164.13 35.0898 164.833 34.9466 165.406 34.6602C165.992 34.3867 166.441 33.9245 166.754 33.2734C167.066 32.6354 167.223 31.7695 167.223 30.6758V14.1523L167.672 9.36719ZM155.719 20.793V19.1328C155.719 17.401 155.882 15.9036 156.207 14.6406C156.533 13.3646 157.001 12.3034 157.613 11.457C158.225 10.6107 158.974 9.98568 159.859 9.58203C160.745 9.17839 161.734 8.97656 162.828 8.97656C163.961 8.97656 164.918 9.21745 165.699 9.69922C166.493 10.168 167.138 10.8385 167.633 11.7109C168.141 12.5833 168.538 13.625 168.824 14.8359C169.111 16.0339 169.319 17.375 169.449 18.8594V21.1641C169.319 22.5964 169.098 23.9115 168.785 25.1094C168.473 26.2943 168.049 27.3164 167.516 28.1758C166.995 29.0352 166.344 29.7057 165.562 30.1875C164.794 30.6562 163.87 30.8906 162.789 30.8906C161.708 30.8906 160.732 30.6758 159.859 30.2461C158.987 29.8164 158.238 29.1784 157.613 28.332C157.001 27.4857 156.533 26.4375 156.207 25.1875C155.882 23.9245 155.719 22.4596 155.719 20.793ZM160.27 19.1328V20.793C160.27 21.8737 160.341 22.8047 160.484 23.5859C160.641 24.3672 160.868 25.0117 161.168 25.5195C161.467 26.0143 161.858 26.3854 162.34 26.6328C162.822 26.8672 163.395 26.9844 164.059 26.9844C164.931 26.9844 165.634 26.776 166.168 26.3594C166.715 25.9427 167.132 25.3828 167.418 24.6797C167.717 23.9635 167.926 23.1693 168.043 22.2969V17.7461C167.978 17.056 167.848 16.418 167.652 15.832C167.47 15.2331 167.216 14.7122 166.891 14.2695C166.578 13.8268 166.188 13.4818 165.719 13.2344C165.263 12.974 164.723 12.8438 164.098 12.8438C163.447 12.8438 162.874 12.974 162.379 13.2344C161.897 13.4818 161.5 13.8659 161.188 14.3867C160.875 14.8945 160.641 15.5456 160.484 16.3398C160.341 17.1211 160.27 18.0521 160.27 19.1328Z" fill="white"/>
</svg>
